HIERARCHY
ROOT Hips
{
	OFFSET 0.00000 0.00000 0.00000
	CHANNELS 6 Xposition Yposition Zposition Zrotation Yrotation Xrotation 
	JOINT LHipJoint
	{
		OFFSET 0 0 0
		CHANNELS 3 Zrotation Yrotation Xrotation
		JOINT LeftUpLeg
		{
			OFFSET 1.26600 -1.82114 0.91038
			CHANNELS 3 Zrotation Yrotation Xrotation
			JOINT LeftLeg
			{
				OFFSET 2.50076 -6.87080 0.00000
				CHANNELS 3 Zrotation Yrotation Xrotation
				JOINT LeftFoot
				{
					OFFSET 2.57364 -7.07102 0.00000
					CHANNELS 3 Zrotation Yrotation Xrotation
					JOINT LeftToeBase
					{
						OFFSET 0.13572 -0.37290 1.97004
						CHANNELS 3 Zrotation Yrotation Xrotation
						End Site
						{
							OFFSET 0.00000 -0.00000 1.01383
						}
					}
				}
			}
		}
	}
	JOINT RHipJoint
	{
		OFFSET 0 0 0
		CHANNELS 3 Zrotation Yrotation Xrotation
		JOINT RightUpLeg
		{
			OFFSET -1.20803 -1.82114 0.91038
			CHANNELS 3 Zrotation Yrotation Xrotation
			JOINT RightLeg
			{
				OFFSET -2.54916 -7.00377 0.00000
				CHANNELS 3 Zrotation Yrotation Xrotation
				JOINT RightFoot
				{
					OFFSET -2.56374 -7.04382 0.00000
					CHANNELS 3 Zrotation Yrotation Xrotation
					JOINT RightToeBase
					{
						OFFSET -0.23520 -0.64621 2.09921
						CHANNELS 3 Zrotation Yrotation Xrotation
						End Site
						{
							OFFSET -0.00000 -0.00000 1.10065
						}
					}
				}
			}
		}
	}
	JOINT LowerBack
	{
		OFFSET 0 0 0
		CHANNELS 3 Zrotation Yrotation Xrotation
		JOINT Spine
		{
			OFFSET 0.05492 2.10797 -0.12074
			CHANNELS 3 Zrotation Yrotation Xrotation
			JOINT Spine1
			{
				OFFSET 0.04577 2.11592 -0.04483
				CHANNELS 3 Zrotation Yrotation Xrotation
				JOINT Neck
				{
					OFFSET 0 0 0
					CHANNELS 3 Zrotation Yrotation Xrotation
					JOINT Neck1
					{
						OFFSET -0.10759 1.80167 0.15770
						CHANNELS 3 Zrotation Yrotation Xrotation
						JOINT Head
						{
							OFFSET 0.09237 1.77509 -0.40848
							CHANNELS 3 Zrotation Yrotation Xrotation
							End Site
							{
								OFFSET 0.03805 1.84093 -0.15754
							}
						}
					}
				}
				JOINT LeftShoulder
				{
					OFFSET 0 0 0
					CHANNELS 3 Zrotation Yrotation Xrotation
					JOINT LeftArm
					{
						OFFSET 3.42372 1.09575 -0.28209
						CHANNELS 3 Zrotation Yrotation Xrotation
						JOINT LeftForeArm
						{
							OFFSET 4.95681 -0.00000 0.00000
							CHANNELS 3 Zrotation Yrotation Xrotation
							JOINT LeftHand
							{
								OFFSET 3.40915 -0.00000 0.00000
								CHANNELS 3 Zrotation Yrotation Xrotation
								JOINT LeftFingerBase
								{
									OFFSET 0 0 0
									CHANNELS 3 Zrotation Yrotation Xrotation
									JOINT LeftHandIndex1
									{
										OFFSET 0.61640 -0.00000 0.00000
										CHANNELS 3 Zrotation Yrotation Xrotation
										End Site
										{
											OFFSET 0.49696 -0.00000 0.00000
										}
									}
								}
								JOINT LThumb
								{
									OFFSET 0 0 0
									CHANNELS 3 Zrotation Yrotation Xrotation
									End Site
									{
										OFFSET 0.50455 -0.00000 0.50455
									}
								}
							}
						}
					}
				}
				JOINT RightShoulder
				{
					OFFSET 0 0 0
					CHANNELS 3 Zrotation Yrotation Xrotation
					JOINT RightArm
					{
						OFFSET -3.24731 1.15872 -0.32221
						CHANNELS 3 Zrotation Yrotation Xrotation
						JOINT RightForeArm
						{
							OFFSET -5.35200 -0.00000 0.00000
							CHANNELS 3 Zrotation Yrotation Xrotation
							JOINT RightHand
							{
								OFFSET -3.43721 -0.00000 -0.00000
								CHANNELS 3 Zrotation Yrotation Xrotation
								JOINT RightFingerBase
								{
									OFFSET 0 0 0
									CHANNELS 3 Zrotation Yrotation Xrotation
									JOINT RightHandIndex1
									{
										OFFSET -0.72009 -0.00000 0.00000
										CHANNELS 3 Zrotation Yrotation Xrotation
										End Site
										{
											OFFSET -0.58056 -0.00000 0.00000
										}
									}
								}
								JOINT RThumb
								{
									OFFSET 0 0 0
									CHANNELS 3 Zrotation Yrotation Xrotation
									End Site
									{
										OFFSET -0.58942 -0.00000 0.58942
									}
								}
							}
						}
					}
				}
			}
		}
	}
}
MOTION
Frames: 11
Frame Time: .0083333
-2.8621 23.5024 -0.0278 0 0 0 0 0 0 -21 0 0 0 0 0 0 0 0 0 0 0 0 0 0 21 0 0 0 0 0 0 0 0 0 0 0 0 0 0 0 0 0 0 0 0 0 0 -16 0 0 21 0 0 11 0 0 0 -8 0 0 0 0 0 0 0 0 0 0 0 0 0 0 0 0 0 0 0 0 8 0 0 0 0 0 0 0 0 0 0 0 0 0 0 0 0 0
-2.8621 23.5024 -0.0278 -126.4900 83.2236 -122.4690 0.0000 0.0000 0.0000 -13.9743 -7.6462 -15.6643 4.2578 12.4957 37.5090 -0.4685 -19.3082 -9.1115 6.7635 15.1294 47.9739 0.0000 0.0000 0.0000 27.5405 -0.0570 -15.0351 -3.7660 -11.8424 35.1767 -1.6346 7.0455 -22.9140 -1.7217 -8.2605 23.5082 4.2809 0.1161 2.1644 4.1560 0.2824 2.7367 1.8752 0.2318 1.5985 -10.7930 -3.8302 -4.6760 2.1524 -0.4832 45.5941 3.2654 -0.6797 18.0144 0.0000 0.0000 0.0000 -91.2447 2.2771 20.9930 16.7452 -26.5207 -3.9729 -0.0000 -0.0000 0.2966 23.0366 18.1013 7.5262 -7.1250 0.0000 -0.0000 -4.9705 49.4704 -0.5491 0.0000 0.0000 0.0000 82.9151 1.2484 11.3645 -16.4611 26.1418 -3.8469 0.0000 -0.0000 -11.1527 -20.3826 13.6723 -5.0190 7.1250 -0.0000 -0.0000 4.8020 -15.4665 3.3595
-2.8607 23.5023 -0.0295 -126.8180 83.2681 -122.7940 0.0000 0.0000 0.0000 -14.0796 -7.7060 -15.7028 4.2835 12.5284 37.6280 -0.4735 -19.0917 -8.8370 6.9472 15.2872 48.6742 0.0000 0.0000 0.0000 27.4732 -0.1697 -15.0466 -3.7554 -11.8276 35.1249 -1.6685 6.6512 -23.1772 -1.2978 -7.2176 20.3616 4.1798 0.1072 2.1915 4.1666 0.2714 2.7279 1.9423 0.2238 1.5735 -10.8327 -3.8197 -4.7840 2.1055 -0.4569 45.4943 3.2490 -0.6845 17.9787 0.0000 -0.0000 0.0000 -91.3365 2.2881 20.9032 16.7655 -26.5476 -3.9820 -0.0000 -0.0000 0.4419 23.0562 18.2492 7.5921 -7.1250 0.0000 -0.0000 -4.9879 49.6303 -0.5707 0.0000 -0.0000 0.0000 82.7984 1.0035 12.0549 -16.7067 26.4695 -3.9557 0.0000 -0.0000 -11.6541 -20.3523 13.3024 -4.8785 7.1250 -0.0000 -0.0000 4.8094 -15.8595 3.3239
-2.8615 23.4951 -0.0308 -126.1300 83.1497 -122.1730 0.0000 0.0000 0.0000 -13.9271 -7.7150 -15.7266 4.3235 12.5789 37.8119 -0.3585 -19.1383 -10.1004 5.9449 14.3747 44.7602 0.0000 0.0000 0.0000 27.6432 -0.2813 -14.9950 -3.7383 -11.8038 35.0413 -1.6361 6.4258 -22.9563 -1.0249 -6.4400 18.0665 4.1429 0.0230 2.3554 4.3705 0.1780 2.7001 2.1737 0.1763 1.4526 -11.1262 -3.7216 -4.9429 2.1176 -0.2522 45.4241 3.3357 -0.6532 17.9670 0.0000 -0.0000 0.0000 -91.7597 2.3359 20.3718 16.7683 -26.5513 -3.9832 -0.0000 -0.0000 0.7208 23.2140 18.1138 7.5953 -7.1250 0.0000 -0.0000 -4.8006 49.5119 -0.5352 0.0000 -0.0000 0.0000 82.7461 0.8759 11.7081 -16.8996 26.7252 -4.0421 0.0000 -0.0000 -10.7311 -20.2581 12.8638 -4.6975 7.1250 -0.0000 -0.0000 4.8597 -16.3307 3.3092
-2.8595 23.4899 -0.0388 -124.6190 82.8151 -120.7280 0.0000 0.0000 0.0000 -13.5175 -7.6391 -15.7604 4.3561 12.6197 37.9612 0.3047 -18.5117 -15.6004 1.6488 8.0928 22.9962 0.0000 0.0000 0.0000 28.0295 -0.4077 -14.9278 -3.7274 -11.7885 34.9878 -1.6013 6.2064 -22.7165 -0.8076 -5.7352 16.0181 4.5559 0.0524 2.4840 4.4639 0.2422 2.6289 2.0379 0.2150 1.3086 -11.0796 -3.7360 -4.9446 2.1831 -0.3196 45.3940 3.3472 -0.6629 17.9514 -0.0000 0.0000 0.0000 -91.7902 2.4382 20.3924 16.7523 -26.5300 -3.9761 -0.0000 -0.0000 0.8627 23.3278 17.8889 7.5458 -7.1250 0.0000 -0.0000 -4.6356 49.2911 -0.4915 -0.0000 0.0000 0.0000 83.0694 0.8828 10.2624 -16.8018 26.5958 -3.9982 0.0000 -0.0000 -9.1156 -20.0308 13.0268 -4.6979 7.1250 -0.0000 -0.0000 5.0220 -16.1805 3.4370
-2.8550 23.4885 -0.0452 -124.4600 82.7385 -120.5510 0.0000 0.0000 0.0000 -13.4711 -7.6146 -15.8325 4.3830 12.6534 38.0844 0.5153 -17.5570 -16.7484 0.4605 4.3529 12.0716 0.0000 0.0000 0.0000 28.0801 -0.5616 -14.9542 -3.7220 -11.7809 34.9614 -1.6087 6.3616 -22.7607 -0.8231 -5.7887 16.1726 4.8267 0.1989 2.4658 4.2842 0.4391 2.5664 1.6981 0.3156 1.2577 -10.7090 -3.8227 -4.9170 2.2928 -0.5994 45.3303 3.2872 -0.6980 17.9132 -0.0000 -0.0000 0.0000 -91.3685 2.5091 20.9797 16.7608 -26.5414 -3.9799 -0.0000 -0.0000 0.6940 23.1922 17.8012 7.4622 -7.1250 0.0000 -0.0000 -4.7465 49.1764 -0.4899 -0.0000 -0.0000 0.0000 83.2486 1.0769 10.0765 -16.3019 25.9283 -3.7770 0.0000 -0.0000 -9.2631 -20.1021 13.3590 -4.8336 7.1250 -0.0000 -0.0000 4.9835 -15.8241 3.4490
-2.8532 23.4866 -0.0452 -125.5110 82.9696 -121.6590 0.0000 0.0000 0.0000 -13.8031 -7.7253 -15.7424 4.4005 12.6750 38.1639 0.5566 -17.0480 -16.8216 0.4008 4.0648 11.2591 0.0000 0.0000 0.0000 27.8517 -0.8570 -15.0340 -3.7235 -11.7831 34.9690 -1.6270 6.1763 -22.9069 -0.7197 -5.4211 15.1136 4.5493 0.2133 2.5563 4.1528 0.4544 2.5908 1.7159 0.3173 1.2304 -10.5204 -3.7702 -5.0481 2.2945 -0.5903 45.1890 3.2476 -0.6663 17.8477 -0.0000 -0.0000 0.0000 -91.2154 2.4604 21.0892 16.7756 -26.5610 -3.9865 -0.0000 -0.0000 0.4638 22.9696 17.7704 7.3709 -7.1250 0.0000 -0.0000 -4.9552 49.1087 -0.5032 -0.0000 -0.0000 0.0000 83.1920 1.3774 10.7036 -15.8945 25.3774 -3.6006 0.0000 -0.0000 -9.7795 -20.3208 13.3707 -4.8947 7.1250 -0.0000 -0.0000 4.8335 -15.7906 3.3479
-2.8491 23.4823 -0.0478 -126.2110 83.0593 -122.4790 0.0000 0.0000 0.0000 -13.9763 -7.7458 -15.5956 4.4084 12.6849 38.2000 0.4847 -16.8912 -16.1716 0.5228 4.6340 12.8676 0.0000 0.0000 0.0000 27.7433 -0.9621 -14.9540 -3.7333 -11.7967 35.0167 -1.6134 5.7012 -22.8460 -0.5453 -4.7311 13.1433 4.3065 0.1138 2.6611 4.2218 0.3237 2.6688 1.9246 0.2495 1.2495 -10.6426 -3.6756 -5.2902 2.2251 -0.3939 45.1163 3.2631 -0.6229 17.8514 -0.0000 -0.0000 0.0000 -91.4687 2.3504 20.6687 16.7636 -26.5451 -3.9811 -0.0000 -0.0000 0.6098 22.8988 17.6426 7.2952 -7.1250 0.0000 -0.0000 -4.9932 48.9623 -0.4891 -0.0000 -0.0000 0.0000 83.0147 1.6577 10.9554 -15.6653 25.0648 -3.5030 0.0000 -0.0000 -9.5436 -20.5267 13.4740 -4.9859 7.1250 -0.0000 -0.0000 4.6957 -15.6614 3.2649
-2.8431 23.4789 -0.0527 -127.4010 83.1051 -123.7300 0.0000 0.0000 0.0000 -14.1620 -7.7807 -15.4923 4.4125 12.6900 38.2188 0.5010 -17.8633 -16.7921 1.5674 7.9001 22.4110 0.0000 0.0000 0.0000 27.5615 -0.8969 -14.8280 -3.7483 -11.8177 35.0901 -1.6043 5.5389 -22.7939 -0.4895 -4.4861 12.4483 4.2031 0.0825 2.6662 4.1881 0.2770 2.7233 1.9487 0.2254 1.3024 -10.6266 -3.6506 -5.4861 2.2202 -0.3539 45.0806 3.2629 -0.6094 17.8752 -0.0000 -0.0000 0.0000 -91.5318 2.2449 20.5186 16.7479 -26.5242 -3.9741 -0.0000 -0.0000 0.7562 22.9554 17.5217 7.2671 -7.1250 0.0000 -0.0000 -4.9099 48.8427 -0.4664 -0.0000 -0.0000 0.0000 82.8877 1.8229 11.2707 -15.4714 24.7987 -3.4212 0.0000 -0.0000 -9.6163 -20.7425 13.5304 -5.0635 7.1250 -0.0000 -0.0000 4.5495 -15.5804 3.1705
-2.8387 23.4756 -0.0583 -128.0930 83.0977 -124.4100 0.0000 0.0000 0.0000 -14.2848 -8.0029 -15.4194 4.4193 12.6984 38.2498 0.1343 -18.7698 -14.3601 4.9660 13.3454 40.6758 0.0000 0.0000 0.0000 27.5089 -1.0533 -14.9352 -3.7618 -11.8365 35.1561 -1.6080 5.4191 -22.8333 -0.4352 -4.2331 11.7335 4.4225 0.2099 2.6574 3.9127 0.4450 2.6749 1.5388 0.3108 1.2609 -10.1261 -3.7236 -5.4290 2.2767 -0.6385 44.9541 3.1488 -0.6319 17.7859 0.0000 0.0000 0.0000 -91.0131 2.2580 21.0257 16.7519 -26.5295 -3.9759 -0.0000 -0.0000 0.5358 22.9059 17.5815 7.2735 -7.1250 0.0000 -0.0000 -4.9719 48.8985 -0.4791 0.0000 0.0000 0.0000 83.2832 1.7420 10.9574 -15.3871 24.6826 -3.3859 0.0000 -0.0000 -9.4933 -20.3023 13.4038 -4.9017 7.1250 -0.0000 -0.0000 4.8473 -15.7575 3.3610
-2.8347 23.4680 -0.0670 -127.0060 82.8706 -123.2420 0.0000 0.0000 0.0000 -14.0625 -8.1589 -15.5079 4.4225 12.7023 38.2640 0.6508 -16.6774 -17.3837 0.9943 6.3460 17.7917 0.0000 0.0000 0.0000 27.7827 -1.2064 -15.1511 -3.7772 -11.8578 35.2309 -1.6095 5.4276 -22.8431 -0.3960 -4.0403 11.1902 4.8935 0.3026 2.5884 3.8257 0.5740 2.6047 1.1847 0.3819 1.2345 -9.8379 -3.8028 -5.4221 2.2305 -0.8422 44.8047 3.0360 -0.6722 17.6985 0.0000 0.0000 0.0000 -90.7481 2.3125 21.3438 16.7794 -26.5660 -3.9882 -0.0000 -0.0000 0.4494 22.6821 17.6141 7.2080 -7.1250 0.0000 -0.0000 -5.1961 48.8986 -0.5008 0.0000 0.0000 0.0000 83.5508 1.7592 10.4183 -15.2218 24.4541 -3.3172 0.0000 -0.0000 -9.0644 -19.7042 13.5788 -4.8063 7.1250 -0.0000 -0.0000 5.2642 -15.6315 3.6668
